<svg xmlns="http://www.w3.org/2000/svg" width="91" height="91" fill="none"><circle cx="45.512" cy="45.583" r="42.914" stroke="#fff" stroke-opacity=".05" stroke-width="4.17"/><path fill="#fff" d="M46.891 33.881v-9.327h10.766c1.737 0 3.384.773 4.493 2.108l.397.478a5.842 5.842 0 011.35 3.733v6.847h-9.271v-3.839H46.89zM62.152 64.444a5.842 5.842 0 01-4.541 2.168H46.89v-9.328h7.45v-6.91h-8.16v-9.327h17.715v19.175c0 1.337-.459 2.635-1.3 3.675l-.444.547zM37.28 57.284h6.682v9.328H33.436a5.842 5.842 0 01-4.564-2.197l-.467-.583a5.842 5.842 0 01-1.277-3.646V30.909c0-1.351.468-2.66 1.325-3.705l.42-.512a5.842 5.842 0 014.517-2.138h10.572v9.327H37.28v23.403z"/></svg>